mtllib dark_stone.mtl
o Body
usemtl Body
v 0.000000 0.000000 0.000000
v 0.742844 0.314678 0.000000
v 0.521411 0.283793 0.340945
v 0.229161 0.330305 0.634757
v -0.205442 0.330224 0.569058
v -0.510194 0.383350 0.333610
v -0.802197 0.336007 0.000000
v -0.536760 0.287323 -0.350981
v -0.214990 0.281053 -0.595505
v 0.209520 0.347610 -0.580352
v 0.628330 0.284940 -0.410858
v 0.936878 0.773760 0.000000
v 0.707436 0.739802 0.462584
v 0.313358 0.808767 0.867974
v -0.327623 0.745649 0.907487
v -0.770258 0.774513 0.503662
v -1.006985 0.760513 0.000000
v -0.804814 0.774413 -0.526258
v -0.282186 0.803646 -0.781633
v 0.328667 0.754546 -0.910381
v 0.786738 0.759681 -0.514439
v 0.619534 1.166310 0.000000
v 0.493448 1.249947 0.322660
v 0.183684 1.201974 0.508790
v -0.230220 1.162691 0.637690
v -0.624600 1.249748 0.408419
v -0.744983 1.206386 0.000000
v -0.586388 1.243489 -0.383432
v -0.180242 1.189528 -0.499256
v 0.235182 1.207340 -0.651435
v 0.574710 1.166536 -0.375796
v 0.000000 1.560000 0.000000
f 1 3 2
f 1 4 3
f 1 5 4
f 1 6 5
f 1 7 6
f 1 8 7
f 1 9 8
f 1 10 9
f 1 11 10
f 1 2 11
f 2 3 13 12
f 3 4 14 13
f 4 5 15 14
f 5 6 16 15
f 6 7 17 16
f 7 8 18 17
f 8 9 19 18
f 9 10 20 19
f 10 11 21 20
f 11 2 12 21
f 12 13 23 22
f 13 14 24 23
f 14 15 25 24
f 15 16 26 25
f 16 17 27 26
f 17 18 28 27
f 18 19 29 28
f 19 20 30 29
f 20 21 31 30
f 21 12 22 31
f 22 23 32
f 23 24 32
f 24 25 32
f 25 26 32
f 26 27 32
f 27 28 32
f 28 29 32
f 29 30 32
f 30 31 32
f 31 22 32
o GlowShard_01
usemtl Glow
v -1.373051 0.171241 0.068600
v -0.679921 0.195744 -0.159700
v -0.551234 0.149128 0.343949
v -1.133384 0.181023 0.543111
v -1.180602 1.095791 0.091808
v -0.788519 1.073873 -0.027913
v -0.700565 1.081513 0.321908
v -1.032202 1.093509 0.409773
f 33 36 35 34
f 37 38 39 40
f 33 34 38 37
f 34 35 39 38
f 35 36 40 39
f 36 33 37 40
o GlowShard_02
usemtl Glow
v 0.707126 -0.010866 -0.066641
v 1.233321 0.050562 0.227351
v 0.976263 0.046747 0.634346
v 0.534512 0.056372 0.395402
v 0.765741 1.112230 0.065199
v 1.092022 1.105422 0.234172
v 0.950059 1.106867 0.506256
v 0.651638 1.108229 0.353202
f 41 44 43 42
f 45 46 47 48
f 41 42 46 45
f 42 43 47 46
f 43 44 48 47
f 44 41 45 48
o GlowShard_03
usemtl Glow
v -0.380021 0.792558 -0.614355
v 0.393758 0.725923 -0.692966
v 0.399006 0.740960 -0.193327
v -0.272013 0.733221 -0.116961
v -0.216739 1.973768 -0.543774
v 0.234603 1.970899 -0.574643
v 0.253068 1.939703 -0.269370
v -0.116720 1.945146 -0.222189
f 49 52 51 50
f 53 54 55 56
f 49 50 54 53
f 50 51 55 54
f 51 52 56 55
f 52 49 53 56
o GlowShard_04
usemtl Glow
v -0.624491 0.501172 0.368980
v -0.128558 0.507093 0.704272
v -0.434496 0.511413 1.056540
v -0.833612 0.517523 0.744117
v -0.561954 1.346063 0.495715
v -0.280962 1.379115 0.705261
v -0.455451 1.320847 0.954132
v -0.696183 1.383831 0.749291
f 57 60 59 58
f 61 62 63 64
f 57 58 62 61
f 58 59 63 62
f 59 60 64 63
f 60 57 61 64
o GlowShard_05
usemtl Glow
v 0.134170 0.495381 -0.694897
v 0.624206 0.439136 -1.015540
v 0.857134 0.481793 -0.645222
v 0.456254 0.443476 -0.396561
v 0.282470 1.225285 -0.699884
v 0.574499 1.248133 -0.898015
v 0.735167 1.263908 -0.656532
v 0.488872 1.238592 -0.499043
f 65 68 67 66
f 69 70 71 72
f 65 66 70 69
f 66 67 71 70
f 67 68 72 71
f 68 65 69 72
o GlowShard_06
usemtl Glow
v -0.790952 -0.080370 -0.878968
v -0.307633 -0.087090 -0.729594
v -0.436598 -0.085710 -0.354724
v -0.840485 -0.040202 -0.498372
v -0.703422 0.639886 -0.766512
v -0.413747 0.685110 -0.698600
v -0.490770 0.684049 -0.450236
v -0.748408 0.636382 -0.522692
f 73 76 75 74
f 77 78 79 80
f 73 74 78 77
f 74 75 79 78
f 75 76 80 79
f 76 73 77 80
o GlowShard_07
usemtl Glow
v 0.233767 -0.049715 0.618512
v 0.715265 -0.058952 0.414436
v 0.894697 -0.078538 0.790676
v 0.448521 -0.053493 0.965823
v 0.359919 0.626646 0.642625
v 0.658655 0.612223 0.511232
v 0.756293 0.624209 0.760180
v 0.502204 0.618846 0.863353
f 81 84 83 82
f 85 86 87 88
f 81 82 86 85
f 82 83 87 86
f 83 84 88 87
f 84 81 85 88
