mtllib light_stone.mtl
o Body
usemtl Body
v 0.000000 0.000000 0.000000
v 0.694206 0.335451 0.000000
v 0.615919 0.319150 0.402742
v 0.224587 0.303740 0.622088
v -0.231655 0.317682 0.641664
v -0.497230 0.325125 0.325133
v -0.727669 0.375462 0.000000
v -0.630277 0.358509 -0.412131
v -0.229304 0.356727 -0.635151
v 0.228033 0.315294 -0.631632
v 0.650914 0.309486 -0.425625
v 1.094104 0.742850 0.000000
v 0.858080 0.726017 0.561089
v 0.286478 0.753503 0.793521
v -0.354238 0.838229 0.981209
v -0.883282 0.769836 0.577568
v -1.109876 0.763739 0.000000
v -0.876845 0.731026 -0.573359
v -0.265190 0.853052 -0.734554
v 0.340640 0.794165 -0.943543
v 0.814219 0.784106 -0.532408
v 0.719361 1.295192 0.000000
v 0.614376 1.204067 0.401733
v 0.204189 1.245115 0.565587
v -0.191816 1.200755 0.531314
v -0.496075 1.243781 0.324377
v -0.734793 1.163570 0.000000
v -0.495274 1.248775 -0.323854
v -0.188060 1.302330 -0.520910
v 0.233722 1.167705 -0.647391
v 0.538454 1.163194 -0.352088
v 0.000000 1.560000 0.000000
f 1 3 2
f 1 4 3
f 1 5 4
f 1 6 5
f 1 7 6
f 1 8 7
f 1 9 8
f 1 10 9
f 1 11 10
f 1 2 11
f 2 3 13 12
f 3 4 14 13
f 4 5 15 14
f 5 6 16 15
f 6 7 17 16
f 7 8 18 17
f 8 9 19 18
f 9 10 20 19
f 10 11 21 20
f 11 2 12 21
f 12 13 23 22
f 13 14 24 23
f 14 15 25 24
f 15 16 26 25
f 16 17 27 26
f 17 18 28 27
f 18 19 29 28
f 19 20 30 29
f 20 21 31 30
f 21 12 22 31
f 22 23 32
f 23 24 32
f 24 25 32
f 25 26 32
f 26 27 32
f 27 28 32
f 28 29 32
f 29 30 32
f 30 31 32
f 31 22 32
o GlowShard_01
usemtl Glow
v -1.353439 0.167892 0.060552
v -0.693508 0.136086 -0.137663
v -0.556684 0.149778 0.393161
v -1.116998 0.193569 0.510615
v -1.185181 1.091059 0.089090
v -0.781916 1.057217 -0.020373
v -0.686893 1.049470 0.303272
v -1.039649 1.054707 0.407579
f 33 36 35 34
f 37 38 39 40
f 33 34 38 37
f 34 35 39 38
f 35 36 40 39
f 36 33 37 40
o GlowShard_02
usemtl Glow
v 0.683144 0.025033 -0.043470
v 1.231635 0.062243 0.223474
v 1.012760 0.044169 0.614499
v 0.518800 0.066062 0.365329
v 0.750439 1.035548 0.055866
v 1.091739 1.073558 0.229948
v 0.946106 1.034125 0.485982
v 0.671952 1.097163 0.344065
f 41 44 43 42
f 45 46 47 48
f 41 42 46 45
f 42 43 47 46
f 43 44 48 47
f 44 41 45 48
o GlowShard_03
usemtl Glow
v -0.354706 0.780375 -0.621771
v 0.373560 0.801165 -0.693901
v 0.377860 0.772609 -0.163408
v -0.270682 0.757932 -0.148447
v -0.211795 1.985762 -0.537672
v 0.226695 1.911051 -0.583272
v 0.251423 1.896375 -0.260906
v -0.131354 1.981661 -0.241365
f 49 52 51 50
f 53 54 55 56
f 49 50 54 53
f 50 51 55 54
f 51 52 56 55
f 52 49 53 56
o GlowShard_04
usemtl Glow
v -0.628011 0.519587 0.355497
v -0.127649 0.469550 0.694822
v -0.397964 0.486136 1.067045
v -0.834219 0.479798 0.785034
v -0.565451 1.371251 0.494185
v -0.259828 1.318027 0.698992
v -0.452876 1.317519 0.952751
v -0.695911 1.359510 0.753110
f 57 60 59 58
f 61 62 63 64
f 57 58 62 61
f 58 59 63 62
f 59 60 64 63
f 60 57 61 64
o GlowShard_05
usemtl Glow
v 0.155773 0.491889 -0.703158
v 0.603792 0.463255 -0.998691
v 0.852729 0.456445 -0.648750
v 0.458207 0.466224 -0.361493
v 0.303245 1.255219 -0.691762
v 0.581226 1.264114 -0.896325
v 0.723327 1.249693 -0.667492
v 0.490155 1.228363 -0.493078
f 65 68 67 66
f 69 70 71 72
f 65 66 70 69
f 66 67 71 70
f 67 68 72 71
f 68 65 69 72
o GlowShard_06
usemtl Glow
v -0.775509 -0.073921 -0.857597
v -0.288972 -0.083763 -0.721446
v -0.434158 -0.064941 -0.353234
v -0.858330 -0.035124 -0.505542
v -0.707845 0.684982 -0.779855
v -0.423667 0.653091 -0.692207
v -0.486773 0.645010 -0.451604
v -0.751693 0.685153 -0.524391
f 73 76 75 74
f 77 78 79 80
f 73 74 78 77
f 74 75 79 78
f 75 76 80 79
f 76 73 77 80
o GlowShard_07
usemtl Glow
v 0.251050 -0.051131 0.614155
v 0.718353 -0.069522 0.417116
v 0.851866 -0.096122 0.780146
v 0.464771 -0.081409 0.969640
v 0.367161 0.599552 0.644031
v 0.655683 0.593403 0.505014
v 0.766840 0.623977 0.759634
v 0.504481 0.587887 0.871593
f 81 84 83 82
f 85 86 87 88
f 81 82 86 85
f 82 83 87 86
f 83 84 88 87
f 84 81 85 88
