<svg width="404" height="103" viewBox="0 0 404 103" fill="none" xmlns="http://www.w3.org/2000/svg">
<path d="M383 0.416016L404 21.0166V82.0078L383.408 103H21.416L0.00488281 81.9971L0 82.002V21.0166L0.416016 21.4248L21.4248 0.00878906L21.416 0H383.408L383 0.416016Z" fill="url(#paint0_linear_127_62)"/>
<clipPath id="path-2-inside-1_127_62">
<path d="M383 0.416016L404 21.0166V82.0078L383.408 103H21.416L0.00488281 81.9971L0 82.002V21.0166L0.416016 21.4248L21.4248 0.00878906L21.416 0H383.408L383 0.416016Z"/>
</clipPath>
<path d="M383 0.416016L376.576 -5.88734L370.272 0.537441L376.697 6.84078L383 0.416016ZM404 21.0166H413V17.238L410.303 14.5918L404 21.0166ZM404 82.0078L410.425 88.3102L413 85.6851V82.0078H404ZM383.408 103V112H387.187L389.833 109.302L383.408 103ZM21.416 103L15.1136 109.425L17.7387 112H21.416V103ZM0.00488281 81.9971L6.3073 75.5722L-0.0560707 69.3301L-6.35908 75.6331L0.00488281 81.9971ZM0 82.002H-9V103.73L6.36396 88.3659L0 82.002ZM0 21.0166L6.30336 14.5926L-9 -0.423362V21.0166H0ZM0.416016 21.4248L-5.88734 27.8488L0.537426 34.1529L6.84077 27.7274L0.416016 21.4248ZM21.4248 0.00878906L27.8496 6.31137L34.0919 -0.0520041L27.7888 -6.35517L21.4248 0.00878906ZM21.416 0V-9H-0.311906L15.0521 6.36396L21.416 0ZM383.408 0L389.832 6.30336L404.848 -9H383.408V0ZM383 0.416016L376.697 6.84078L397.697 27.4414L404 21.0166L410.303 14.5918L389.303 -6.00875L383 0.416016ZM404 21.0166H395V82.0078H404H413V21.0166H404ZM404 82.0078L397.575 75.7054L376.983 96.6976L383.408 103L389.833 109.302L410.425 88.3102L404 82.0078ZM383.408 103V94H21.416V103V112H383.408V103ZM21.416 103L27.7184 96.5751L6.3073 75.5722L0.00488281 81.9971L-6.29754 88.422L15.1136 109.425L21.416 103ZM0.00488281 81.9971L-6.35908 75.6331L-6.36396 75.638L0 82.002L6.36396 88.3659L6.36884 88.361L0.00488281 81.9971ZM0 82.002H9V21.0166H0H-9V82.002H0ZM0 21.0166L-6.30336 27.4406L-5.88734 27.8488L0.416016 21.4248L6.71937 15.0008L6.30336 14.5926L0 21.0166ZM0.416016 21.4248L6.84077 27.7274L27.8496 6.31137L21.4248 0.00878906L15.0001 -6.2938L-6.00874 15.1222L0.416016 21.4248ZM21.4248 0.00878906L27.7888 -6.35517L27.78 -6.36396L21.416 0L15.0521 6.36396L15.0608 6.37275L21.4248 0.00878906ZM21.416 0V9H383.408V0V-9H21.416V0ZM383.408 0L376.984 -6.30336L376.576 -5.88734L383 0.416016L389.424 6.71937L389.832 6.30336L383.408 0Z" fill="url(#paint1_linear_127_62)" clip-path="url(#path-2-inside-1_127_62)"/>
<clipPath id="path-4-inside-2_127_62">
<path d="M383 0.416016L404 21.0166V82.0078L383.408 103H21.416L0.00488281 81.9971L0 82.002V21.0166L0.416016 21.4248L21.4248 0.00878906L21.416 0H383.408L383 0.416016Z"/>
</clipPath>
<path d="M383 0.416016L378.717 -3.78622L374.515 0.496966L378.798 4.69919L383 0.416016ZM404 21.0166H410V18.4975L408.202 16.7334L404 21.0166ZM404 82.0078L408.283 86.2094L410 84.4593V82.0078H404ZM383.408 103V109H385.927L387.691 107.202L383.408 103ZM21.416 103L17.2144 107.283L18.9645 109H21.416V103ZM0.00488281 81.9971L4.2065 77.7138L-0.0357529 73.5524L-4.23776 77.7544L0.00488281 81.9971ZM0 82.002H-6V96.4872L4.24264 86.2446L0 82.002ZM0 21.0166L4.20224 16.7339L-6 6.72329V21.0166H0ZM0.416016 21.4248L-3.78622 25.7075L0.496956 29.9102L4.69918 25.6265L0.416016 21.4248ZM21.4248 0.00878906L25.708 4.21051L29.8696 -0.0317397L25.6674 -4.23385L21.4248 0.00878906ZM21.416 0V-6H6.93073L17.1734 4.24264L21.416 0ZM383.408 0L387.691 4.20224L397.702 -6H383.408V0ZM383 0.416016L378.798 4.69919L399.798 25.2998L404 21.0166L408.202 16.7334L387.202 -3.86716L383 0.416016ZM404 21.0166H398V82.0078H404H410V21.0166H404ZM404 82.0078L399.717 77.8062L379.125 98.7984L383.408 103L387.691 107.202L408.283 86.2094L404 82.0078ZM383.408 103V97H21.416V103V109H383.408V103ZM21.416 103L25.6176 98.7167L4.2065 77.7138L0.00488281 81.9971L-4.19673 86.2803L17.2144 107.283L21.416 103ZM0.00488281 81.9971L-4.23776 77.7544L-4.24264 77.7593L0 82.002L4.24264 86.2446L4.24752 86.2397L0.00488281 81.9971ZM0 82.002H6V21.0166H0H-6V82.002H0ZM0 21.0166L-4.20224 25.2993L-3.78622 25.7075L0.416016 21.4248L4.61825 17.1421L4.20224 16.7339L0 21.0166ZM0.416016 21.4248L4.69918 25.6265L25.708 4.21051L21.4248 0.00878906L17.1416 -4.19293L-3.86715 17.2231L0.416016 21.4248ZM21.4248 0.00878906L25.6674 -4.23385L25.6587 -4.24264L21.416 0L17.1734 4.24264L17.1822 4.25143L21.4248 0.00878906ZM21.416 0V6H383.408V0V-6H21.416V0ZM383.408 0L379.126 -4.20224L378.717 -3.78622L383 0.416016L387.283 4.61825L387.691 4.20224L383.408 0Z" fill="url(#paint2_linear_127_62)" clip-path="url(#path-4-inside-2_127_62)"/>
<defs>
<linearGradient id="paint0_linear_127_62" x1="202" y1="0" x2="202" y2="103" gradientUnits="userSpaceOnUse">
<stop offset="0.418269" stop-color="#F47B3A"/>
<stop offset="0.711538" stop-color="#8E4822"/>
</linearGradient>
<linearGradient id="paint1_linear_127_62" x1="202" y1="0" x2="202" y2="103" gradientUnits="userSpaceOnUse">
<stop stop-color="#31D4D1"/>
<stop offset="0.5625" stop-color="#196E6C"/>
</linearGradient>
<linearGradient id="paint2_linear_127_62" x1="202" y1="0" x2="202" y2="103" gradientUnits="userSpaceOnUse">
<stop offset="0.163462" stop-color="#F47C3A"/>
<stop offset="0.653846"/>
</linearGradient>
</defs>
</svg>
